# xmcd CD database file
#
# Track frame offsets:
#	150
#	20250
#	36375
#	59925
#	62775
#	70800
#	87825
#
# Disc length: 1305 seconds
#
# Revision: 0
# Processed by: cddbd v1.5.1PL2 Copyright (c) Steve Scherf et al.
# Submitted via: CDex 1.51
#
DISCID=62051707
DTITLE=Gemma Turvey - Standing
DYEAR=2006
DGENRE=Jazz
TTITLE0=Local Hero/Going Home Theme
TTITLE1=Standing
TTITLE2=Don't Want to Fly
TTITLE3=Intro
TTITLE4=Passenger Theme
TTITLE5=Carrickfergus
TTITLE6=Standing (reprise)
EXTD=YEAR: 2006
EXTT0=
EXTT1=
EXTT2=
EXTT3=
EXTT4=
EXTT5=
EXTT6=
PLAYORDER=
